<?xml version="1.0" standalone="no"?><!DOCTYPE svg PUBLIC "-//W3C//DTD SVG 1.1//EN" "http://www.w3.org/Graphics/SVG/1.1/DTD/svg11.dtd"><svg width="200" height="200" viewBox="0 0 200 200" version="1.1" xmlns="http://www.w3.org/2000/svg" xmlns:xlink="http://www.w3.org/1999/xlink"><defs><style type="text/css"><![CDATA[
@font-face { font-family: ifont; src: url(http://at.alicdn.com/t/font_1442373896_4754455.eot?#iefix) format(embedded-opentype), url(http://at.alicdn.com/t/font_1442373896_4754455.woff) format(woff), url(http://at.alicdn.com/t/font_1442373896_4754455.ttf) format(truetype), url(http://at.alicdn.com/t/font_1442373896_4754455.svg#ifont) format(svg); }

]]></style></defs><g class="transform-group"><g transform="scale(0.1953125, 0.1953125)"><path d="M519.536 731.628h-4.581c-24.613 0-44.074 20.036-44.074 44.074 0 24.613 20.036 44.074 44.074 44.074h4.581c24.613 0 44.074-20.036 44.074-44.074s-20.036-44.074-44.074-44.074zM759.389 55.576h-485.428c-48.657 0-88.159 39.499-88.159 88.159v705.815c0 48.657 39.499 88.159 88.159 88.159h485.428c48.657 0 88.159-39.499 88.159-88.159v-705.815c0-48.657-39.499-88.159-88.159-88.159zM759.389 143.742v472.836h-485.428v-472.836h485.428zM274.527 849.544v-144.825h485.428v144.825h-485.428z" fill="#56abe4"></path></g></g></svg>