<?xml version="1.0" standalone="no"?><!DOCTYPE svg PUBLIC "-//W3C//DTD SVG 1.1//EN" "http://www.w3.org/Graphics/SVG/1.1/DTD/svg11.dtd"><svg width="217.7734375" height="200" viewBox="0 0 217.7734375 200" version="1.1" xmlns="http://www.w3.org/2000/svg" xmlns:xlink="http://www.w3.org/1999/xlink"><defs><style type="text/css"><![CDATA[
@font-face { font-family: ifont; src: url(http://at.alicdn.com/t/font_1442373896_4754455.eot?#iefix) format(embedded-opentype), url(http://at.alicdn.com/t/font_1442373896_4754455.woff) format(woff), url(http://at.alicdn.com/t/font_1442373896_4754455.ttf) format(truetype), url(http://at.alicdn.com/t/font_1442373896_4754455.svg#ifont) format(svg); }

]]></style></defs><g class="transform-group"><g transform="scale(0.1953125, 0.1953125)"><path d="M690.121114 76.111053 610.37609 472.246784 1114.561741 533.192704 1114.561741 502.801101ZM569.021338 688.858317 863.258522 624.548659 1012.119859 641.707213 1114.561741 594.159104 1114.561741 548.033331 608.006042 486.846976ZM864.142643 637.05303 566.000333 706.631987 534.119834 875.315712 995.402342 650.058854ZM513.090867 885.387571l32.462848-173.902848-302.005453 82.328883-19.168461 68.633395c0 0 52.243354 10.861875 115.735347 16.216064C419.878502 885.387571 513.090867 885.387571 513.090867 885.387571zM159.873638 845.196288c23.035699 7.110246 50.143437 13.504205 50.143437 13.504205l17.683558-60.26537L108.708966 827.108454C108.708966 827.108454 136.842035 838.083994 159.873638 845.196288zM512.902554 900.935373c0 0-93.399552 1.595392-220.043878-12.522803-139.235635-23.910707-207.42697-55.492506-207.42697-55.492506l-62.822707 15.674778 238.674125 92.132659 331.5712 1.236173 462.504448-283.501158-42.094694-5.900698L512.902554 900.935373zM322.631168 452.362957l13.269811-41.896141c-12.81239-1.298637-57.572966-6.033715-95.025664-12.315034-44.210995-7.423386-82.235802-20.09559-82.235802-20.09559s5.87305-31.226675 42.046566-118.72256c33.247744-80.413184 48.846746-110.675866 48.846746-110.675866L422.081843 138.367898l18.686464-59.007693L230.364365 94.864998c0 0-29.060198 52.24745-67.628442 146.463642-48.050586 117.378867-67.172045 179.174195-67.172045 179.174195s50.071757 8.065024 101.997773 15.767859C253.166797 444.518912 322.631168 452.362957 322.631168 452.362957zM509.149901 134.438195c37.099725-1.237197 110.140621 0 110.140621 0l-61.835264 276.388864c0 0-60.596941 3.39753-108.205466 3.39753-32.695194 0-74.719232-1.600512-97.840947-2.60649l-13.282099 42.358682c0 0 49.889587 5.55991 105.171251 8.479539 55.283712 2.917581 149.077299 5.317325 149.077299 5.317325l84.417638-405.060403L455.909888 78.284595l-18.537062 59.129446C455.073792 136.58624 484.872909 135.246643 509.149901 134.438195zM334.244147 468.961792c0 0-29.251584 92.151091-42.46825 143.996314-17.09312 66.525286-40.448102 158.564762-40.448102 158.564762l298.120806-80.380416 39.123866-204.295475L334.244147 468.961792zM498.056704 599.211315c-27.824026 19.843891-64.311706 16.385946-81.496986-7.710003-17.186202-24.096973-8.564429-59.724083 19.259597-79.56183 27.826074-19.843891 64.311706-16.391066 81.496986 7.705907C534.503526 543.748608 525.88073 579.36855 498.056704 599.211315zM84.639642 813.554176l148.360909-37.20407c0 0 16.45865-60.854886 38.371738-146.390938 21.913088-85.533082 45.773619-162.184397 45.773619-162.184397s-69.523661-8.507187-119.353958-16.2048c-49.830195-7.687475-107.86775-16.368538-107.86775-16.368538S67.437056 501.641626 44.249805 586.66199s-43.89888 175.100211-43.89888 175.100211 31.535718 21.29193 52.24745 34.896384C73.312154 810.262016 84.639642 813.554176 84.639642 813.554176zM128.806605 469.794816c22.02665-7.621939 47.0784 6.998733 55.955046 32.654234 8.879616 25.655501-1.77961 52.632166-23.807386 60.253082-22.02368 7.621939-47.077376-6.996685-55.954022-32.652186C96.124723 504.393421 106.782003 477.418803 128.806605 469.794816z" fill="#eb4f38"></path></g></g></svg>