<?xml version="1.0" standalone="no"?><!DOCTYPE svg PUBLIC "-//W3C//DTD SVG 1.1//EN" "http://www.w3.org/Graphics/SVG/1.1/DTD/svg11.dtd"><svg width="200" height="200" viewBox="0 0 200 200" version="1.1" xmlns="http://www.w3.org/2000/svg" xmlns:xlink="http://www.w3.org/1999/xlink"><defs><style type="text/css"><![CDATA[
@font-face { font-family: ifont; src: url(http://at.alicdn.com/t/font_1442373896_4754455.eot?#iefix) format(embedded-opentype), url(http://at.alicdn.com/t/font_1442373896_4754455.woff) format(woff), url(http://at.alicdn.com/t/font_1442373896_4754455.ttf) format(truetype), url(http://at.alicdn.com/t/font_1442373896_4754455.svg#ifont) format(svg); }

]]></style></defs><g class="transform-group"><g transform="scale(0.1953125, 0.1953125)"><path d="M960.092993 512.318248c0 247.576655-200.687742 448.264397-448.25928 448.264397-247.580748 0-448.270537-200.687742-448.270537-448.264397 0-247.559259 200.688765-448.264397 448.270537-448.264397C759.404228 64.053851 960.092993 264.758989 960.092993 512.318248zM659.168316 341.912184c-30.30726 0-64.340377-7.574512-87.084381-22.707165-26.562982-15.159258-60.614519-34.084283-113.614617-34.084283-56.786331 0-109.828384 37.861306-109.828384 37.861306l0 302.95287c0 0 37.862329-26.50977 75.753311-34.105772 37.861306-7.547907 90.851171 3.797489 121.126708 15.159258 26.562982 11.361769 45.477774 30.292933 121.221876 37.861306 53.029774 3.787256 106.040105-37.861306 106.040105-37.861306L772.782933 304.044738C768.976234 311.61925 719.773625 345.698416 659.168316 341.912184L659.168316 341.912184zM659.168316 341.912184M284.967752 247.25329 284.967752 247.25329c-18.926048 0-34.094516 15.143908-34.094516 30.286794l0 499.844146 64.423265 0 0-499.844146C315.295478 262.397199 300.115754 247.25329 284.967752 247.25329L284.967752 247.25329zM284.967752 247.25329" fill="#eb4f38"></path></g></g></svg>