<?xml version="1.0" standalone="no"?><!DOCTYPE svg PUBLIC "-//W3C//DTD SVG 1.1//EN" "http://www.w3.org/Graphics/SVG/1.1/DTD/svg11.dtd"><svg width="200" height="200" viewBox="0 0 200 200" version="1.1" xmlns="http://www.w3.org/2000/svg" xmlns:xlink="http://www.w3.org/1999/xlink"><defs><style type="text/css"><![CDATA[
@font-face { font-family: ifont; src: url(http://at.alicdn.com/t/font_1442373896_4754455.eot?#iefix) format(embedded-opentype), url(http://at.alicdn.com/t/font_1442373896_4754455.woff) format(woff), url(http://at.alicdn.com/t/font_1442373896_4754455.ttf) format(truetype), url(http://at.alicdn.com/t/font_1442373896_4754455.svg#ifont) format(svg); }

]]></style></defs><g class="transform-group"><g transform="scale(0.1953125, 0.1953125)"><path d="M939.808 341.6l-395.744-136.064c-24.672-8.928-19.488-8.992-44-0.16l-398.112 135.008c-24.448 8.832-24.32 23.264 0.352 32.224l94.624 32.064c-41.92 40.608-44.608 82.816-45.184 131.744-16.16 6.24-27.68 21.984-27.68 40.352 0 16.864 9.696 31.456 23.808 38.592-6.688 49.728-25.888 106.56-82.304 173.856 27.904 21.6 42.304 28.768 63.936 36 78.848-33.888 69.28-123.872 63.136-213.472 10.848-7.84 17.888-20.64 17.888-34.976 0-15.424-8.096-28.992-20.288-36.64 1.408-47.968 11.872-90.848 47.68-118.624 0.288-0.736 1.152-1.376 2.688-2.016l272.064-109.952c10.08-4.032 21.536 0.832 25.568 10.944l0.352 0.864c4.064 10.08-0.8 21.6-10.912 25.6l-229.92 91.904 205.76 69.792c24.672 8.928 19.488 8.992 43.968 0.128l392.704-134.944C964.64 364.928 964.48 350.496 939.808 341.6L939.808 341.6zM502.848 560.864l-249.056-84.48 0 63.52c13.024 11.904 20.224 29.024 20.224 48.064 0 17.056-6.016 32.672-16.064 44.288 3.296 9.984 9.056 19.712 17.28 22.784 144.928 80.096 345.28 79.232 506.4-8.128 11.968-9.92 21.184-22.272 21.184-34.176l0-139.84-255.808 88.096C522.528 569.856 527.52 569.792 502.848 560.864L502.848 560.864z" fill="#eb4f38"></path></g></g></svg>