<?xml version="1.0" standalone="no"?><!DOCTYPE svg PUBLIC "-//W3C//DTD SVG 1.1//EN" "http://www.w3.org/Graphics/SVG/1.1/DTD/svg11.dtd"><svg width="200" height="200" viewBox="0 0 200 200" version="1.1" xmlns="http://www.w3.org/2000/svg" xmlns:xlink="http://www.w3.org/1999/xlink"><defs><style type="text/css"><![CDATA[
@font-face { font-family: ifont; src: url(http://at.alicdn.com/t/font_1442373896_4754455.eot?#iefix) format(embedded-opentype), url(http://at.alicdn.com/t/font_1442373896_4754455.woff) format(woff), url(http://at.alicdn.com/t/font_1442373896_4754455.ttf) format(truetype), url(http://at.alicdn.com/t/font_1442373896_4754455.svg#ifont) format(svg); }

]]></style></defs><g class="transform-group"><g transform="scale(0.1953125, 0.1953125)"><path d="M656.436088 731.203444c-2.449795-14.397918-5.392824-29.391401-8.93244-44.804439-1.779529-7.717775-3.707438-15.527648-5.792936-23.428595-2.087545-7.899924-4.338818-15.878642-6.757914-23.932062-9.686616-32.18605-22.245653-65.35038-37.94624-98.119715-31.128975-65.522296-75.767638-129.636522-124.593669-181.678806C374.073162 250.317069 280.794709 207.395514 215.354278 204.620307c-16.587793-1.369184-31.43699-1.351787-44.857651-0.177032-6.708795 0.584308-13.06455 1.458211-19.108197 2.588965-3.021823 0.564865-5.964852 1.194198-8.829086 1.893116-2.871397 0.687662-5.661953 1.439792-8.385994 2.251274-2.747577 0.839111-5.434779 1.750877-8.068769 2.741437-0.662079 0.23843-1.318018 0.494257-1.969864 0.75213-0.337691 0.130983-0.654916 0.264013-0.981351 0.38681-0.326435 0.134053-0.654916 0.26606-0.981351 0.399089-1.298576 0.539282-2.589988 1.094938-3.861958 1.677199-1.281179 0.584308-2.554172 1.186012-3.827165 1.812275-1.261737 0.629333-2.517333 1.282203-3.77293 1.954515-2.51017 1.351787-5.000897 2.808976-7.485485 4.381797-9.923 6.294356-19.778462 14.379499-30.372751 25.577538-52.547797 48.347125-51.160193 115.936499-27.350928 169.384805 22.834055 54.023404 68.416206 86.10917 64.883753 86.605473 0.211824-0.070608-32.673144 21.131273-46.759977 63.816444-3.560082 10.550287-5.77861 22.3838-6.229888 34.994002-0.230244 6.30152-0.00921 12.8077 0.716314 19.432585 0.36225 3.316535 0.855484 6.664793 1.476631 10.034541 0.308015 1.685385 0.652869 3.373841 1.033539 5.068436 0.379647 1.699712 0.796132 3.403516 1.24434 5.109368 0.442068 1.694595 0.919952 3.40454 1.424442 5.109368 0.503467 1.711991 1.042749 3.420913 1.616824 5.125741 1.14201 3.417843 2.421142 6.830569 3.818979 10.244318 2.809999 6.812149 6.122441 13.591553 9.933233 20.25123 3.809769 6.656607 8.103562 13.20679 12.840446 19.566638 2.359744 3.181459 4.844332 6.319939 7.424086 9.403161 1.290389 1.538029 2.607384 3.066849 3.949962 4.586458 1.334391 1.521656 2.702552 3.022847 4.092201 4.503571 24.920576 24.218588 67.587328 33.786501 108.177791 28.963659 42.10905-2.235924 98.855472-10.80202 168.325683-7.637957 68.225871 2.945075 146.220223 15.134699 202.891943 59.370179 57.269331 39.328727 90.205465 114.681926 90.169649 113.565499C674.383856 848.38326 656.436088 731.203444 656.436088 731.203444zM556.889885 756.064668c-52.368718-27.78788-111.781876-44.773739-168.078043-46.313815-57.326637-1.698688-104.003725 6.104021-138.701992 8.497535-33.407877 4.507664-68.715011-2.831488-89.582271-22.468734-1.162476-1.201361-2.312672-2.422166-3.430122-3.65832-1.128707-1.239224-2.233877-2.484587-3.316535-3.738138-2.171456-2.505054-4.259-5.059226-6.248308-7.653307-3.984754-5.178953-7.612375-10.533914-10.838859-15.965623-3.231601-5.447059-6.048763-10.990309-8.458649-16.570397-1.193175-2.800789-2.296299-5.595438-3.279696-8.395204-0.49528-1.402953-0.960885-2.804882-1.400906-4.209882-0.437975-1.39886-0.852414-2.800789-1.243317-4.195555-0.39295-1.396813-0.756223-2.798742-1.088798-4.197602-0.337691-1.388627-0.64366-2.777253-0.918929-4.157693-0.557702-2.77316-1.00898-5.53404-1.348718-8.258081-0.684592-5.455245-0.951675-10.81737-0.842181-16.018835 0.205685-10.401908 1.88186-20.189831 4.679579-28.930913 11.05887-35.384905 37.897122-53.296857 37.722136-53.234435 2.911306-0.451278-35.096333-26.320459-54.630225-70.570265-20.327978-43.762713-22.355147-99.478665 20.344351-140.031267 8.592702-9.374508 16.60826-16.167215 24.712845-21.487384 2.025123-1.330298 4.061502-2.562359 6.116301-3.710508 1.025353-0.568958 2.050706-1.124614 3.084245-1.661849 1.041726-0.532119 2.084475-1.046842 3.134387-1.542122 1.040702-0.499373 2.098801-0.975211 3.162016-1.436722 0.268106-0.11461 0.538259-0.224104 0.805342-0.341784 0.264013-0.101307 0.528026-0.218988 0.805342-0.328481 0.534166-0.223081 1.070378-0.443092 1.612731-0.647753 2.159176-0.850367 4.363378-1.638313 6.616698-2.363837 2.237971-0.706081 4.526083-1.363044 6.884804-1.966795 2.354628-0.611937 4.773723-1.168616 7.257288-1.674129 4.970198-1.014096 10.199293-1.815345 15.722076-2.38635 11.053754-1.143033 23.296589-1.351787 36.993542-0.436952 53.996798 1.434675 131.47438 35.610032 213.987652 124.143415 40.941458 42.279942 78.587869 94.568842 105.105826 148.188041 13.379729 26.815739 24.163329 53.995775 32.57593 80.415494 2.099824 6.607488 5.187139 12.921287 7.019881 19.404955 1.812275 6.495948 4.529153 13.08297 6.098905 19.419282 3.119037 12.663414 7.574512 25.427112 10.375302 37.016055 0 0 32.809243 111.605867 38.292118 153.565515C656.704195 849.075015 609.520569 783.993764 556.889885 756.064668zM985.473033 480.011448c-0.203638-4.00522-0.723477-7.869225-1.515516-11.593036-1.591241-7.440459-4.25593-14.265912-7.647167-20.208251-13.544481-24.098861-36.939307-33.713846-36.800138-33.692357-2.329045 0.021489 23.868617-23.063275 32.970926-57.237609 2.448772-8.464789 3.88447-17.346063 4.076852-26.282596 0.098237-4.451382-0.135076-8.925277-0.699941-13.359262-0.285502-2.222621-0.662079-4.437056-1.12359-6.634094-0.456395-2.197038-1.01205-4.376681-1.653663-6.541997-5.192256-17.311271-16.446577-33.376155-35.892465-45.346791-7.987928-5.691629-15.177678-9.603729-22.233374-12.43624-1.753947-0.700965-3.510964-1.347694-5.273097-1.915629-0.87288-0.295735-1.749854-0.564865-2.628874-0.814552-0.88209-0.26299-1.766226-0.512676-2.653433-0.737804-0.880043-0.226151-1.76111-0.443092-2.664689-0.633427-0.225127-0.058328-0.437975-0.105401-0.661056-0.149403-0.234337-0.057305-0.454348-0.103354-0.673335-0.147356-0.452301-0.090051-0.905626-0.184195-1.351787-0.273223-1.795902-0.340761-3.622504-0.64673-5.482875-0.886183-1.835811-0.233314-3.701299-0.428765-5.630231-0.575098-1.921769-0.150426-3.87833-0.261966-5.886057-0.318248-4.003174-0.125867-8.18338-0.066515-12.56006 0.203638-4.386914 0.25992-8.965186 0.726547-13.770632 1.419326-4.802376 0.689708-9.819646 1.606591-15.093766 2.775206-41.753963 7.674796-97.572246 41.490973-149.110039 115.505687-25.667589 35.665291-47.034223 78.391395-56.431244 123.284861-4.796236 22.460548-6.723122 45.533033-6.021134 68.475558 0.174985 5.738701 0.49835 11.462053 0.975211 17.149589 0.475837 5.703909 1.086751 11.374048 1.832741 17.008372 1.502213 11.260461 3.50994 22.356171 5.862521 33.143864 0 0 40.322357 139.953496 51.789527 150.135392 1.174756 1.042749-18.818601-73.582879 1.608637-112.245434 17.533328-43.156916 61.083194-61.830207 100.984972-72.767304 40.917922-10.979052 77.314877-11.857049 104.184851-14.774495 26.149567-1.245364 53.067636-10.552334 67.067488-26.894534 0.75827-0.99056 1.515516-2.006703 2.241041-2.997264 0.737804-1.006933 1.450025-2.023076 2.143826-3.040243 1.39272-2.033309 2.708692-4.092201 3.943822-6.170536 2.481518-4.1536 4.646833-8.377808 6.488785-12.625552 1.836835-4.259 3.329838-8.544607 4.476965-12.812817 0.573051-2.13871 1.063215-4.260024 1.472538-6.378268 0.193405-1.070378 0.370437-2.121314 0.533143-3.173273 0.157589-1.051959 0.292666-2.111081 0.416486-3.154853 0.115634-1.042749 0.220011-2.085498 0.299829-3.128247 0.062422-1.033539 0.12075-2.068102 0.155543-3.093455C985.597877 484.024855 985.572294 482.008942 985.473033 480.011448zM942.506453 479.450676c-0.057305 0.815575-0.124843 1.626034-0.204661 2.431376-0.095167 0.819668-0.207731 1.630127-0.326435 2.453888-0.118704 0.819668-0.261966 1.647523-0.415462 2.463098-0.156566 0.823761-0.328481 1.647523-0.506537 2.484587-0.38681 1.660826-0.828878 3.299139-1.339508 4.977361-1.020236 3.308349-2.319835 6.634094-3.883447 9.93221-1.562589 3.285836-3.377934 6.54302-5.448082 9.740852-1.034563 1.595334-2.125407 3.176342-3.273557 4.732791-0.581238 0.784876-1.166569 1.559519-1.768273 2.330068-0.60989 0.75827-1.227967 1.532913-1.850138 2.292206-11.462053 12.45159-32.877805 19.001773-53.458539 19.24839-21.198811 1.523703-49.816592 1.181919-82.285075 8.662287-31.661094 7.466042-70.557986 15.765055-90.987271 48.14451-18.345834 29.075199-28.878724 82.848916-29.122271 81.639369-4.613064-22.665209-10.226922-102.014418-10.226922-102.014418-0.884137-10.413164-1.666966-21.13639-2.124384-28.764114-0.267083-4.479011-0.192382-9.762341-0.289596-14.248516-0.096191-4.758374 0.300852-10.770298 0.578168-15.274892 1.212618-19.365046 6.024204-36.138058 11.626805-53.190433 11.251252-34.272571 26.64894-67.986417 47.824215-95.28311 42.585911-56.707536 87.398536-81.699744 120.426767-86.554308 4.169973-0.77055 8.148587-1.349741 11.93482-1.75497 3.809769-0.409322 7.402597-0.645706 10.863419-0.728594 3.446495-0.085958 6.734378-0.01535 9.881045 0.199545 1.570775 0.096191 3.105734 0.240477 4.607948 0.413416 1.514493 0.168846 2.979868 0.37453 4.411473 0.613984 1.460258 0.234337 2.883677 0.528026 4.28356 0.848321 0.350994 0.080841 0.703011 0.163729 1.062192 0.252757 0.161682 0.040932 0.337691 0.081864 0.512676 0.135076 0.174985 0.040932 0.346901 0.082888 0.518816 0.135076 0.709151 0.172939 1.399883 0.370437 2.076288 0.568958 0.694825 0.204661 1.38044 0.426719 2.062985 0.655939 0.686638 0.226151 1.364067 0.457418 2.043542 0.719384 1.37123 0.49528 2.732228 1.050935 4.089132 1.64957 5.467525 2.427282 11.003612 5.706979 17.121959 10.406001 14.944364 9.94756 23.329335 22.89136 26.926256 36.642548 0.437975 1.715061 0.814552 3.443425 1.11438 5.183046 0.296759 1.741667 0.533143 3.494591 0.690732 5.244444 0.320295 3.502777 0.376577 7.021927 0.172939 10.515494-0.404206 7.023974-1.781576 13.960966-3.945869 20.544919-8.114818 26.591635-29.343305 43.985794-27.52796 44.043099-0.099261-0.028653 18.009166 8.18952 27.972075 27.502377 2.49789 4.764514 4.397147 10.214642 5.443989 16.105816 0.508583 2.935865 0.805342 5.998621 0.853437 9.148357C942.644599 476.265124 942.611853 477.851249 942.506453 479.450676zM567.877123 296.90206c-1.805112-6.581905-3.866051-13.414521-6.216585-20.346397-1.181919-3.475148-2.436492-6.976902-3.77293-10.480702-1.332345-3.514033-2.739391-7.028067-4.221138-10.541077-5.940292-14.0766-13.165858-28.028357-21.672602-41.047882-16.84362-26.100448-39.60195-48.376801-62.228273-64.019059-23.093974-16.438391-42.387389-24.958438-56.574506-28.66997-7.141654-1.87572-13.094226-2.582825-18.008142-2.602268 0 0 0 0 0 0l0 0c-2.453888-0.011256-4.652973 0.154519-6.609535 0.446162-1.950422 0.280386-3.668553 0.692778-5.152347 1.161453-0.396019 0.106424-0.780783 0.213871-1.153266 0.324388-1.118474 0.328481-2.134617 0.670266-3.065825 1.01205-1.243317 0.466628-2.353604 0.941442-3.338025 1.429559-0.995677 0.497327-1.874697 0.983397-2.674922 1.494027-0.39295 0.245593-0.775666 0.494257-1.12973 0.756223-0.363274 0.246617-0.695848 0.50756-1.027399 0.757247-0.321318 0.25685-0.630357 0.525979-0.932232 0.796132-0.071631 0.071631-0.143263 0.135076-0.226151 0.208754-0.032746 0.028653-0.073678 0.060375-0.105401 0.102331-0.042979 0.030699-0.072655 0.061398-0.11461 0.104377-0.135076 0.135076-0.277316 0.278339-0.424672 0.414439-0.134053 0.145309-0.272199 0.291642-0.405229 0.433882-0.130983 0.146333-0.26913 0.301875-0.404206 0.447185-0.25685 0.311085-0.518816 0.623193-0.766456 0.944512-1.004887 1.305739-1.938142 2.819209-2.902096 4.725628-1.130753 2.041496-1.981121 4.16588-2.622734 6.424316-0.321318 1.130753-0.591471 2.294252-0.817622 3.504824-0.228197 1.203408-0.425695 2.455935-0.579191 3.752464-0.044002 0.331551-0.074701 0.652869-0.105401 0.972141-0.030699 0.332575-0.062422 0.653893-0.084934 0.988514-0.028653 0.331551-0.050142 0.661056-0.069585 0.99363-0.021489 0.332575-0.031722 0.663102-0.052189 1.004887-0.054235 1.336438-0.054235 2.705622-0.013303 4.063549 0.106424 2.726088 0.427742 5.441942 1.007957 8.003278 0.838088 4.54041 2.742461 8.176217 4.588505 10.833743 0.264013 0.379647 0.525979 0.738827 0.784876 1.078565 2.064009 2.715855 3.841491 4.137227 3.654226 4.1536-0.063445-0.061398-3.89675 2.769067-3.595898 8.389064 0.028653 1.355881 0.290619 2.858094 0.776689 4.352121 0.239454 0.744967 0.539282 1.49198 0.912789 2.227738 0.177032 0.36225 0.382717 0.726547 0.598634 1.078565 0.105401 0.173962 0.221034 0.352017 0.333598 0.515746 0.11154 0.177032 0.237407 0.355087 0.36225 0.518816 0.12689 0.177032 0.25992 0.341784 0.396019 0.509606 0.12382 0.163729 0.271176 0.320295 0.404206 0.48607 0.290619 0.321318 0.591471 0.630357 0.911766 0.941442 0.633427 0.602727 1.347694 1.171686 2.124384 1.701758 0.225127 0.148379 0.469698 0.289596 0.707105 0.433882 0.593518 0.361227 1.210571 0.712221 1.88493 1.038656 0.478907 0.228197 0.968048 0.445138 1.472538 0.663102 0.258896 0.101307 0.518816 0.216941 0.788969 0.320295 0.270153 0.103354 0.537236 0.207731 0.817622 0.311085 1.779529 0.597611 3.999081 1.147126 6.574742 1.701758 4.29277 0.924045 9.575076 1.865487 15.464203 3.079128 0.304945 0.069585 0.615007 0.13917 0.930185 0.210801 8.201799 1.850138 20.148899 4.40124 38.45687 11.302417 3.520173 1.327228 7.27673 2.815115 11.286044 4.490268 24.953322 10.812253 59.629075 29.137621 87.079264 65.033156 27.815509 32.663934 44.841278 98.136088 44.649919 96.060823C582.302671 369.959983 567.877123 296.90206 567.877123 296.90206zM606.567307 351.628476c-0.048095 0.221034-0.074701 0.37146-0.077771 0.435928L606.567307 351.628476zM607.590614 350.236779c-0.048095 0.221034-0.074701 0.37146-0.077771 0.435928L607.590614 350.236779zM766.690168 184.263677c-0.00614-0.236384-0.017396-0.475837-0.039909-0.714268-0.010233-0.23843-0.021489-0.476861-0.039909-0.713244-0.021489-0.228197-0.039909-0.466628-0.062422-0.697895-0.020466-0.23843-0.049119-0.464581-0.073678-0.691755-0.11154-0.934279-0.243547-1.813299-0.416486-2.686179-0.157589-0.860601-0.357134-1.689479-0.590448-2.489704-0.449231-1.613754-1.049912-3.128247-1.852184-4.580319-0.696872-1.367137-1.360997-2.435469-2.072195-3.369747-0.184195-0.228197-0.363274-0.455371-0.549515-0.672312-0.095167-0.104377-0.188288-0.218988-0.286526-0.320295-0.096191-0.106424-0.193405-0.210801-0.294712-0.302899-0.090051-0.104377-0.196475-0.206708-0.295735-0.298805-0.029676-0.030699-0.058328-0.051165-0.086981-0.081864-0.024559-0.023536-0.055259-0.044002-0.072655-0.073678-0.050142-0.041956-0.103354-0.094144-0.157589-0.144286-0.212848-0.189312-0.432859-0.37453-0.669242-0.560772-0.227174-0.189312-0.466628-0.36225-0.727571-0.550539-0.258896-0.173962-0.525979-0.361227-0.807389-0.539282-0.573051-0.353041-1.194198-0.705058-1.898233-1.056052-0.717338-0.340761-1.489934-0.682545-2.385327-1.016143-0.887206-0.333598-1.883907-0.650823-3.00545-0.952698-1.055029-0.343831-2.279926-0.633427-3.681856-0.830925-1.387603-0.207731-2.949168-0.320295-4.700045-0.320295-3.504824 0.01228-7.745405 0.517793-12.836353 1.856277-10.112312 2.64013-23.860431 8.714476-40.320311 20.431332-14.224979 9.830903-28.503171 23.336498-39.913035 39.147602-1.89414 2.565429-3.722788 5.185093-5.455245 7.870248-6.064113 9.277294-11.211343 19.218714-15.454994 29.252231-1.060145 2.49789-2.054799 5.006014-3.006474 7.516184-0.944512 2.49789-1.842974 4.994758-2.689249 7.461949-1.673106 4.944616-3.149736 9.816576-4.419659 14.500249l-11.260461 62.990636c0.226151-1.041726 0.951675-3.764744 2.134617-7.609305l-1.111311 6.218632c0.103354-0.471744 0.310062-1.297552 0.613984-2.406816l-0.613984 3.430122c1.048889-4.833075 12.790304-45.7643 31.743982-68.027349 19.566638-25.583678 44.280506-38.644135 62.056358-46.345538 4.193509-1.7519 7.979742-3.204995 11.43647-4.442172 11.0558-3.89061 18.46249-5.415336 23.670096-6.601348 6.703679-1.38044 12.31242-2.260483 15.697517-3.399423 0.203638-0.074701 0.38681-0.155543 0.580215-0.228197 0.017396-0.00614 0.033769-0.014326 0.051165-0.021489 0.12689-0.039909 0.271176-0.078795 0.391926-0.118704 0.203638-0.074701 0.38681-0.155543 0.580215-0.228197 0.188288-0.072655 0.37453-0.147356 0.559748-0.230244 0.36532-0.143263 0.716314-0.311085 1.052982-0.465604 0.671289-0.330528 1.281179-0.675382 1.845021-1.058099 0.560772-0.372483 1.069355-0.775666 1.51654-1.213641 0.233314-0.205685 0.442068-0.433882 0.638543-0.662079 0.11154-0.113587 0.204661-0.230244 0.297782-0.352017 0.090051-0.115634 0.188288-0.239454 0.281409-0.353041 0.096191-0.124843 0.178055-0.249687 0.255827-0.37453 0.083911-0.122797 0.165776-0.24764 0.237407-0.373507 0.157589-0.249687 0.304945-0.505513 0.429789-0.76748 0.26606-0.518816 0.476861-1.045819 0.651846-1.583055 0.352017-1.069355 0.530073-2.13564 0.550539-3.112897 0.017396-0.317225 0.010233-0.617054-0.007163-0.908696 0.001023-0.037862 0.00614-0.076748 0.007163-0.11461 0.156566-2.901073-1.235131-4.749164-2.030239-5.533017 1.343601-1.357927 4.836145-5.074575 5.9055-10.866489 0.405229-1.826602 0.638543-3.764744 0.715291-5.700839 0.020466-0.617054 0.021489-1.225921 0.01228-1.832741C766.727007 185.648211 766.723937 184.951339 766.690168 184.263677zM607.590614 351.260086c-0.048095 0.221034-0.074701 0.37146-0.077771 0.435928L607.590614 351.260086z" fill="#ecf0f1"></path></g></g></svg>