<?xml version="1.0" standalone="no"?><!DOCTYPE svg PUBLIC "-//W3C//DTD SVG 1.1//EN" "http://www.w3.org/Graphics/SVG/1.1/DTD/svg11.dtd"><svg width="200" height="200" viewBox="0 0 200 200" version="1.1" xmlns="http://www.w3.org/2000/svg" xmlns:xlink="http://www.w3.org/1999/xlink"><defs><style type="text/css"><![CDATA[
@font-face { font-family: ifont; src: url(http://at.alicdn.com/t/font_1442373896_4754455.eot?#iefix) format(embedded-opentype), url(http://at.alicdn.com/t/font_1442373896_4754455.woff) format(woff), url(http://at.alicdn.com/t/font_1442373896_4754455.ttf) format(truetype), url(http://at.alicdn.com/t/font_1442373896_4754455.svg#ifont) format(svg); }

]]></style></defs><g class="transform-group"><g transform="scale(0.1953125, 0.1953125)"><path d="M1024 512c0-282.8-229.2-512-512-512s-512 229.2-512 512 229.2 512 512 512S1024 794.8 1024 512zM248.7 636.3c-7-22.6-10.6-38.9-10.6-48.6 0-9.7 0.8-21.8 2.4-36.4l-8.2 7.5c-1.4 10.5-2.1 20.4-2.1 29.7 0 12.1 3.7 26.9 11.2 44.2L248.7 636.3 248.7 636.3zM264.8 638.8c-7.6-28.7-11.4-51.3-11.4-67.6 0-11.4 1-20.9 3.2-28.9l-6.7 2.5c-2.4 12-3.6 24.9-3.6 38.7 0 11.4 3.5 29.7 10.3 55.3L264.8 638.8zM572 662.9c-17.2-35.3-30.8-80-41-134.1-9.4-49.8-14.1-97.7-14.1-144.1l3.9-45c-13.1 22.9-31.1 44.4-53.9 64.5-20.8 16.6-41.4 33.3-61.9 50.2-24.2 20.3-36.3 43.8-36.3 70.7 0 23.5 3.1 43.7 9.4 60.8 7.8 21.2 19.3 33.3 34.7 36.9 0.9 0.3 11.7 0.9 32.2 1.9 48.6 2.7 91 15.5 127.2 38.4L572 662.9zM572.3 547.8c0-27.9-3.5-54.1-10.5-78.7-7.8-27.4-18.6-46.7-32.3-57.8 7.5 93.9 18.9 164.1 34.3 211.1C569.4 599.2 572.3 574.3 572.3 547.8L572.3 547.8zM286.8 655.3c-21.1-1.9-36.1-5.5-44.9-11.1-13.8-9.2-20.8-26-20.8-50.2 0-24 5.6-41.8 16.7-53.4 0.4-0.6 13.5-9.8 39.3-28.1-9.2 14-13.8 35.3-13.8 64.1C263.3 611.4 271.1 637.7 286.8 655.3L286.8 655.3zM647.3 574.2c0 29.2-2 55-6.1 77.1-6.3 34.7-16.5 52.1-30.8 52.1-3.7 0-11.8-5.7-24.3-17-15.2-13.9-44.3-25.5-87.4-34.7-35.6-8-66.8-11.8-93.5-11.8-7.4 0-11.1 8-11.1 24 0 5.5 1.6 13.4 4.7 23.6 3.1 10.1 4.7 18.1 4.7 23.8 0 5.8 2.5 12.3 7.6 19.3 5.1 7.2 7.6 12.8 7.6 17 0 1.1-0.2 2.7-0.7 4.9-0.5 2-0.8 3.7-0.8 4.7 0 3.7 2.3 8.9 6.9 15.8 4.6 6.9 6.9 12.8 6.9 17.8 0 2.3-0.7 5.4-2.2 9.1-1.5 3.8-2.2 6.6-2.2 8.8 0 3.1 1.2 6.8 3.5 10.8 2.4 4 3.5 6.9 3.5 8.5 0 4.7-4.6 7.2-14 7.2-20.5 0-35-8.3-43.5-24.6-5.3-10-10.2-30.9-14.9-62.8-9.2-59.5-24.8-89.3-46.9-89.3-0.8 0-1.9 0.3-3.5 0.6-1.6 0.4-2.7 0.6-3.5 0.6-25 0-37.5-30.7-37.5-92.4 0-35.3 12.8-60.8 38.4-76.3 13.2-6.6 33.1-17 59.4-31.2 27.8-15.8 58.1-40.1 91.1-72.7 30.9-30.3 52.7-56.2 65.5-77.9 5.1-36.3 15.7-54.5 31.9-54.5 19.1 0 37.6 28.4 55.4 85.4 11.9 38.4 21 78.9 27.2 121.2 5.7 38.3 8.5 75.9 8.5 113.1L647.3 574.4zM700.1 498c0 50.3-11.4 96.7-34 139 11.1-31.8 16.7-67.6 16.7-107.1 0-36.9-4.5-71.1-13.5-102.8-10.8-38.4-26.4-64.8-46.9-79.3 24.8 10.8 44 29.5 57.4 56.2C693.2 430.7 700 462 700.1 498L700.1 498zM748.4 484.5c0 62.7-14.1 120.6-42.2 173.5 13.7-39.5 20.5-84 20.5-133.5 0-46.1-5.6-88.8-16.7-128.4-13.5-48.1-33.1-81.3-59-99.1 31.4 13.4 55.4 37 72.4 71.1C740.2 400.7 748.5 439.6 748.4 484.5L748.4 484.5zM802.1 471.6c0 78.2-17.6 150.5-52.7 216.8 17.2-49.5 25.9-105.2 25.9-167.1 0-57.8-7-111.2-20.8-160.9-17-60.1-41.6-101.3-73.6-123.7 39.2 16.9 69.3 46.4 90.5 88.6C791.9 366.3 802.1 415.2 802.1 471.6L802.1 471.6z" fill="#eb4f38"></path></g></g></svg>