<?xml version="1.0" standalone="no"?><!DOCTYPE svg PUBLIC "-//W3C//DTD SVG 1.1//EN" "http://www.w3.org/Graphics/SVG/1.1/DTD/svg11.dtd"><svg width="200" height="200" viewBox="0 0 200 200" version="1.1" xmlns="http://www.w3.org/2000/svg" xmlns:xlink="http://www.w3.org/1999/xlink"><defs><style type="text/css"><![CDATA[
@font-face { font-family: ifont; src: url(http://at.alicdn.com/t/font_1442373896_4754455.eot?#iefix) format(embedded-opentype), url(http://at.alicdn.com/t/font_1442373896_4754455.woff) format(woff), url(http://at.alicdn.com/t/font_1442373896_4754455.ttf) format(truetype), url(http://at.alicdn.com/t/font_1442373896_4754455.svg#ifont) format(svg); }

]]></style></defs><g class="transform-group"><g transform="scale(0.1953125, 0.1953125)"><path d="M891.664507 91.224678c7.213285 15.688307-16.341177 27.500331-28.78458 38.956244-17.777899 16.399505-23.934109 31.694863-40.630373 42.318828-8.200776-1.366114-9.461489-9.732665-15.238053-13.535271 0.773619-4.885264 5.991458-5.28947 5.076622-11.861142 19.738553-12.977569 35.247782-30.196743 47.393403-50.768267C868.180654 92.580558 880.266923 81.980129 891.664507 91.224678zM913.68401 197.896162c6.703679 10.8143 3.162016 19.346627-5.086855 27.107381-33.047674-1.866511-41.723264 34.879392-74.499761 38.920428-17.528212-15.426341 11.562337-29.27065 25.385157-40.62014C876.381429 209.447243 885.5216 190.57543 913.68401 197.896162zM911.985322 329.951781c-30.29191 0.605797-54.868655 28.806069-81.250512 16.922415 0.201591-3.730974 2.342348-12.07399 6.749728-16.922415 14.322194-15.734356 100.43341-36.305881 96.498798-8.461719C932.829046 329.619206 923.726737 330.60465 911.985322 329.951781zM945.832198 417.987836c-2.281973 1.11745-3.162016 3.624551-3.363607 6.762007-17.683754 0.962931-58.896388 13.239536-82.986039 18.622126-14.783705 3.315512-26.715455-1.854231-23.710005-18.622126C867.253538 419.461397 922.48956 389.419174 945.832198 417.987836zM954.30415 558.505173c-8.639774 13.677511-29.258371 0.73678-45.706995 0-20.034289-0.903579-42.305525 6.630001-59.242266-1.699712-4.252861-11.350512 0.251733-11.350512 3.375887-21.998013C887.873158 528.653285 946.341804 532.336164 954.30415 558.505173zM959.367469 668.527986c-2.638083 3.540639-9.435906 2.969635-11.835559 6.77224-19.358907-13.071713-99.290377-10.647501-89.725534-45.704948 11.277858-11.730159 20.344351 0.606821 32.158421 5.086855 19.145036 7.260357 46.536896 10.397814 62.653969 18.61087C952.819332 660.410098 959.164854 661.421124 959.367469 668.527986zM928.920016 824.290539c-7.236821 7.570419-15.412015-0.676405-20.321838-5.073552-30.149671-7.083326-50.599422-23.910573-71.113641-40.643676-0.925069-9.958816 4.242627-13.821797 8.450463-18.621103 11.264555-0.416486 19.512403 9.256828 27.107381 15.246239C893.553531 791.359522 921.706731 797.219997 928.920016 824.290539zM737.610876 180.985004c12.300141 17.173125 6.393617 33.596166 6.763031 52.467979 1.400906 73.431429 18.881023 152.11549 18.609847 231.928257-0.178055 66.930365 12.763698 134.313032 6.797823 186.222285-1.165546 9.983375-4.753257 16.352433-11.860119 23.695678 19.073404 17.635659 16.649192 51.744501 15.223726 84.651982-7.142677 13.510712-22.426779 26.750247-45.694715 18.621103-15.449877-13.821797-44.255946-30.589692-66.015529-44.018539-18.96698-11.695367-38.493709-25.955138-55.877635-35.55682-7.90504-4.351098-17.813714-5.609765-25.396413-10.161431-21.85475-13.060457-37.933961-30.007431-71.090105-25.372877-7.998161-7.260357-24.077372-6.417153-37.256532-8.472975 3.243881 23.447015-11.56336 40.774659-20.321838 57.553811 9.923 20.369933 43.733037 21.49864 44.00626 44.042075 0.285502 20.001543-24.636097 20.180622-30.469965 38.921451 4.990664 13.654998 19.001773 18.253736 30.469965 25.394367 14.545274 22.8668 20.951171 73.871451 10.196223 101.585653-35.236526 12.358469-88.868003 14.688537-133.777843 11.835559-12.239765-0.784876-27.867698 3.494591-33.845853 1.686409-6.548136-1.960655-18.597567-19.014052-20.309558-28.770254-1.27197-7.346315 1.901303-14.391778 1.676176-22.021549-0.154519-6.453992-4.00522-11.978822-5.062296-18.611893-6.691399-42.11519-5.372358-92.671633-11.836583-135.429459 0.309038-6.512321-7.890714-4.563946-6.785543-11.861142 3.838422-17.801435 7.083326-47.999201 0-71.090105-25.585725 3.362584-54.784744-11.301394-32.157397-32.181957 31.860638 6.940063 63.48387-1.022283 93.099375 0 6.370081 0.237407 12.240789 4.2897 18.634406 5.085832 8.770757 1.118474 18.36016-2.186805 27.060309-1.686409 40.998763 2.28095 84.258009 14.914688 127.003556 3.3984-11.906168-87.158059-20.677948-169.477926-16.946974-253.937526-5.16872-4.420683-12.405541-6.785543-16.945951-11.860119-72.444962-2.959402-146.137335 1.140986-213.270315 10.149151-10.233062 55.723116-16.185634 111.091144-16.945951 169.298847-0.297782 23.351847 6.808056 46.919613 1.686409 69.402673-15.626909 4.824889-14.20042 19.597337-35.544541 20.310581-40.881083 1.38965-100.31266-14.43885-128.679731-27.084868-59.33641-46.227858-41.998533-137.616264 1.710968-194.684004 20.97573-27.379581 75.724659-55.877635 121.881908-55.877635 8.473999 0 16.566304 2.982938 25.408693 1.710968 7.854898-1.710968 6.334265-12.857842 13.537318-15.234983 78.731132 5.728468 146.790204-12.383028 228.541113-6.774287 9.019421-8.366551 24.196075-5.241374 35.568077-10.171664 10.172687-4.397147 22.198581-16.614399 33.834596-25.372877 30.257118-22.829961 69.081355-52.419883 99.883895-72.825632 7.427156-4.907777 17.803481-7.427156 23.722284-11.835559C701.532169 197.064214 712.084503 173.712367 737.610876 180.985004zM544.614304 345.186763c-17.742083 97.460706 1.926886 185.02297 13.548574 279.345196 4.944616 5.776563 10.742668 10.695596 11.835559 20.297278 34.700313 20.060895 66.776869 42.711777 104.972796 59.253522 4.846378-15.103999-1.677199-32.549324-3.388167-50.791803-3.162016-33.656541 0.379647-70.852698-6.77531-101.561094 3.518127-2.686179 0.583285-11.836583 3.375887-15.236006-5.454222-102.416578-9.519818-189.977819-10.136871-275.970332-1.140986 0-2.25639 0-3.388167 0C615.977631 286.753933 579.066977 314.762847 544.614304 345.186763zM717.301318 302.879192c7.320733 1.11745 4.550643-7.867178 5.051039-13.57211C715.388758 288.452621 713.761702 298.494325 717.301318 302.879192zM234.810399 390.905014c5.251607-0.938372 11.003612-1.390673 15.222703-3.41068-0.986467-6.868431-3.315512-12.431124-11.836583-11.836583C236.426199 380.993271 238.137167 384.617821 234.810399 390.905014zM202.639698 436.622242c6.619768-5.502317 22.092158-19.346627 15.247262-27.107381C213.537909 419.284365 204.280058 424.14507 202.639698 436.622242zM184.005292 516.174066c21.3564-16.994046 28.224832-48.510854 50.805106-64.315818 4.075829-0.737804 3.671623 3.077082 8.449439 1.675152 2.886747-7.855922 7.082302-27.392884-1.676176-32.146141C221.487975 452.059839 198.623221 479.975633 184.005292 516.174066zM163.696758 451.858248c5.597485-0.191358 11.562337-15.711843 8.472975-13.560854C167.713234 441.186188 165.538709 446.320115 163.696758 451.858248zM727.450469 472.14427c3.946892-0.535189 7.001461-2.02103 10.161431-3.363607-1.650593-5.157463 3.625574-17.183358-3.388167-16.922415C733.974046 460.033441 723.87299 465.524502 727.450469 472.14427zM134.93776 497.53966c11.860119-3.505847 21.961174-32.074509 25.370831-44.00626C148.663366 467.069695 137.777435 479.167221 134.93776 497.53966zM167.082878 492.465085c9.353019-6.060019 22.793122-25.490557 18.61087-33.857109C180.737876 471.121987 171.314249 479.215316 167.082878 492.465085zM195.854155 544.934087c2.674922 0.190335 5.871731-0.202615 5.099135 3.3984-7.237845 15.900132-17.042141 29.223578-25.420973 44.029796 17.279548 1.223874 21.379936-21.379936 28.807093-33.857109 8.877181-14.975063 17.493419-29.80584 25.384134-42.331108-1.081635-8.425903 5.157463-9.507538 5.086855-16.923438 4.194532 0.249687 5.216815-2.661619 8.449439-3.387144-0.522909-5.692652 2.269693-14.676257-5.063319-13.535271C221.940276 501.034251 207.381699 521.474792 195.854155 544.934087zM148.473031 526.323217c8.794293-5.847172 13.428847-15.924691 16.933671-27.071565C155.840836 504.337483 151.704632 514.925632 148.473031 526.323217zM97.681228 538.182312c0.854461 8.17724 2.922563 15.117302 8.485255 18.62315 8.568143-17.932418 27.048029-34.999119 27.059286-55.878658C124.241141 516.221138 116.885616 533.096481 97.681228 538.182312zM695.292048 543.257911c7.951089 1.436722 5.443989-13.607926 3.375887-16.934694-1.698688 0-3.375887 0-5.086855 0C693.023378 533.096481 696.59881 535.734564 695.292048 543.257911zM732.512764 561.880037c2.270716 0 4.541433 0 6.785543 0 2.222621-6.274914 2.981914-21.058618 1.700735-25.385157C734.735385 540.773324 728.4134 552.753169 732.512764 561.880037zM740.999043 639.755686c1.37737-1.24741 4.527107-11.729136-1.700735-10.160407C738.572784 633.374348 735.400534 638.769218 740.999043 639.755686zM327.909773 693.959192c-0.260943 14.878872 0.87902 20.927635 1.687432 32.147164 17.398252-22.140253 29.364795-49.663096 42.318828-76.175937C342.37216 643.024126 342.860277 680.590719 327.909773 693.959192zM400.711869 651.604548c-19.169595 28.236088-35.106566 59.705823-55.855122 86.337367 2.352581 7.000438-4.848425 13.096273 0 16.934694 20.702508-36.862559 48.37987-66.741054 67.691705-104.947214C406.676721 648.562259 406.059668 652.435473 400.711869 651.604548zM749.459738 721.030757c3.90903-12.727882 5.324262-32.347732 0-42.317805C740.155838 692.568519 738.442824 707.389062 749.459738 721.030757zM747.760027 732.878596c1.960655-2.565429 5.942339-7.141654 0-8.484232C745.811652 726.94956 741.818711 731.524762 747.760027 732.878596zM399.023414 749.789755c3.958148-2.293229 12.774955-8.579399 8.473999-13.524015C404.288325 740.378407 401.019885 744.466516 399.023414 749.789755zM436.25641 739.641627c-27.250644 39.359426-59.58712 73.609485-79.564104 120.206756-5.965875 0.226151-7.54586 4.849448-13.547551 5.051039 0.404206 14.867616 1.723248 37.779442 15.234983 33.871435-16.388249-23.723308 15.47239-37.0795 16.946974-59.232033 25.372877-15.282055 44.054355-89.439008 81.239256-74.513064C463.280904 749.552348 446.226482 744.015238 436.25641 739.641627zM339.758636 839.537801c9.626241-5.062296 12.08627-17.279548 16.934694-27.119661-5.965875-2.471284-15.662725-1.257643-16.934694-8.43716 1.426489-3.672646 4.38589-5.78782 3.387144-11.835559-1.960655-1.437745-4.51585-2.246157-8.449439-1.711991C336.81049 806.085922 337.428567 829.38865 339.758636 839.537801zM390.550439 878.457206c-6.726192 9.638521-19.227923 13.512758-22.00927 27.107381 8.188496 1.414209 16.875343 2.305509 25.396413 3.37691 10.873652-33.134655 31.361265-56.675814 47.393403-84.651982-7.534604-3.195785-8.366551-13.083993-18.622126-13.535271C413.760047 834.30973 385.416512 851.468528 390.550439 878.457206zM458.27796 844.6134c-10.993378 14.509459-41.249473 42.557258-25.408693 62.628386 17.054421-10.613732 11.908214-43.412742 37.245276-45.693692 10.160407 10.742668-2.733251 30.184463-6.774287 42.307571 28.580942-2.092661 14.261818-36.247552 15.259542-60.954257-5.931083-3.172249-14.154371-12.870122-20.321838-10.159384C463.280904 835.213309 456.043059 839.359746 458.27796 844.6134z" fill="#eb4f38"></path></g></g></svg>