<?xml version="1.0" standalone="no"?><!DOCTYPE svg PUBLIC "-//W3C//DTD SVG 1.1//EN" "http://www.w3.org/Graphics/SVG/1.1/DTD/svg11.dtd"><svg width="200" height="200" viewBox="0 0 200 200" version="1.1" xmlns="http://www.w3.org/2000/svg" xmlns:xlink="http://www.w3.org/1999/xlink"><defs><style type="text/css"><![CDATA[
@font-face { font-family: ifont; src: url(http://at.alicdn.com/t/font_1442373896_4754455.eot?#iefix) format(embedded-opentype), url(http://at.alicdn.com/t/font_1442373896_4754455.woff) format(woff), url(http://at.alicdn.com/t/font_1442373896_4754455.ttf) format(truetype), url(http://at.alicdn.com/t/font_1442373896_4754455.svg#ifont) format(svg); }

]]></style></defs><g class="transform-group"><g transform="scale(0.1953125, 0.1953125)"><path d="M768.1 273.6c-52.9-98.8-155.5-162.1-264.6-162.1-129.8 0-245.2 83.6-285.2 204.9C96.9 350.6 6.9 472.7 6.9 606.4c0 162.9 131.8 300.5 287.8 300.5 12.7 0 23-10.3 23-23s-10.3-23-23-23C163.7 860.9 53 744.3 53 606.4 53 488.9 134 382.1 241.5 358l13.4-3 3.7-13.2c30.3-108.4 131-184.2 244.8-184.2 95.5 0 185.2 57.6 228.7 146.8l5.3 10.8 11.9 1.9C876.8 337 973 451.7 973 583.8c0 150.2-121.5 277.1-265.4 277.1-12.7 0-23 10.3-23 23s10.3 23 23 23c168.8 0 311.4-148 311.4-323.2C1019 433.3 911.9 302.1 768.1 273.6zM325.9 683.8l172 198.6c4.8 5.6 11.8 8.7 19.1 8.7 7.3 0 14.3-3.2 19.1-8.7l172-198.6-38.3-33.2L540 800.7 540 465l-51 0 0 330.2L364 650.6 325.9 683.8z" fill="#eb4f38"></path></g></g></svg>