<?xml version="1.0" standalone="no"?><!DOCTYPE svg PUBLIC "-//W3C//DTD SVG 1.1//EN" "http://www.w3.org/Graphics/SVG/1.1/DTD/svg11.dtd"><svg width="200" height="200" viewBox="0 0 200 200" version="1.1" xmlns="http://www.w3.org/2000/svg" xmlns:xlink="http://www.w3.org/1999/xlink"><defs><style type="text/css"><![CDATA[
@font-face { font-family: ifont; src: url(http://at.alicdn.com/t/font_1442373896_4754455.eot?#iefix) format(embedded-opentype), url(http://at.alicdn.com/t/font_1442373896_4754455.woff) format(woff), url(http://at.alicdn.com/t/font_1442373896_4754455.ttf) format(truetype), url(http://at.alicdn.com/t/font_1442373896_4754455.svg#ifont) format(svg); }

]]></style></defs><g class="transform-group"><g transform="scale(0.1953125, 0.1953125)"><path d="M123.855 515.915l-2.844 8.541c-4.266 11.383 2.14 24.902 13.518 28.465l143.73 50.512c11.383 4.266 24.19-2.14 28.465-13.518l2.844-8.541c4.266-12.094-2.14-24.902-13.518-28.465l-143.73-50.512c-12.094-4.266-24.902 1.423-28.465 13.518v0zM295.338 651.818l-143.73-50.512c-11.383-4.266-24.19 2.14-28.465 13.518l-2.844 8.541c-4.266 12.094 2.14 24.902 13.518 28.465l143.73 50.512c11.383 4.266 24.19-2.14 28.465-13.518l2.844-8.541c4.976-12.094-1.423-24.902-13.518-28.465v0zM672.453 602.725l-11.383-92.501 32.733-6.403c34.155-7.113 99.613-52.655 106.735-81.114 8.541-32.020 22.051-59.054 8.541-86.812-12.803-25.616-21.341-37.715-41.268-51.94-20.638-14.229-53.362-18.498-81.831-16.359 0 0-30.595 7.824-54.082 23.482-26.33 17.074-46.961 41.984-46.961 41.984l41.984 292.441 45.537-22.764zM671.738 320.235c12.803-3.551 25.616-4.976 25.616-4.976 44.114-2.14 66.172 14.229 67.587 44.825 1.423 20.638-1.423 36.998-9.964 54.082-5.694 10.672-40.557 38.429-64.036 44.114l-34.155 4.976-16.359-119.537c0 0 14.946-18.498 31.311-23.482v0zM977.701 698.065l-27.755-444.005c-39.845-224.126-241.216-164.368-241.216-164.368l-493.1 174.323c209.901 66.172 229.825 260.42 229.825 260.42v417.668l532.231-244.057zM342.301 272.567l365.020-119.537c0 0 145.149-61.908 186.427 94.631l30.595 419.805-426.919 187.843v-296.007c0 0 17.074-173.615-155.115-286.751v0zM216.359 315.259c-167.209-43.406-172.186 103.882-170.768 178.596v328.735l347.941 137.323 0.707-425.495c-18.498-109.578-112.43-199.232-177.883-219.151v0zM340.879 890.176l-248.324-103.882 1.423-339.404c0 0 2.14-48.386 17.074-63.323 32.020-35.578 89.655-20.638 86.812-21.341-2.844-1.423 49.801 18.498 72.579 41.268 51.94 49.801 72.579 138.75 72.579 138.75l-2.14 347.941zM340.879 890.176z" fill="#ecf0f1"></path></g></g></svg>