<?xml version="1.0" standalone="no"?><!DOCTYPE svg PUBLIC "-//W3C//DTD SVG 1.1//EN" "http://www.w3.org/Graphics/SVG/1.1/DTD/svg11.dtd"><svg width="200" height="200" viewBox="0 0 200 200" version="1.1" xmlns="http://www.w3.org/2000/svg" xmlns:xlink="http://www.w3.org/1999/xlink"><defs><style type="text/css"><![CDATA[
@font-face { font-family: ifont; src: url(http://at.alicdn.com/t/font_1442373896_4754455.eot?#iefix) format(embedded-opentype), url(http://at.alicdn.com/t/font_1442373896_4754455.woff) format(woff), url(http://at.alicdn.com/t/font_1442373896_4754455.ttf) format(truetype), url(http://at.alicdn.com/t/font_1442373896_4754455.svg#ifont) format(svg); }

]]></style></defs><g class="transform-group"><g transform="scale(0.1953125, 0.1953125)"><path d="M787.589662 741.117235l0-503.199567c0-24.930809-20.574594-45.74895-45.924959-45.74895l-459.325313 0 0-3.613294c0-23.288402 20.950148-42.135656 46.077432-42.135656l459.08893 0c25.394367 0 46.020126 19.354813 46.020126 42.135656l0 510.430248C833.525877 722.225979 812.667827 741.069139 787.589662 741.117235L787.589662 741.117235zM287.380196 426.834318M694.954869 237.173724l-459.08893 0c-25.130354 0-46.076408 20.321838-46.076408 45.344744l0 549.676088c0 24.523533 20.629853 45.384653 46.076408 45.384653l459.08893 0c25.119097 0 46.025243-20.309558 46.025243-45.384653l0-549.676088C740.979088 257.991866 720.357422 237.173724 694.954869 237.173724zM605.564979 441.062368c-0.314155 4.516874-1.565658 8.898671-3.41068 13.090133-2.375094 5.393847-5.402033 10.339486-9.921977 14.175861-2.336208 1.982144-4.817726 3.932566-7.532557 5.302773-7.366781 3.716648-14.861476 7.184633-22.367427 10.617825-5.067412 2.317789-10.155291 4.644787-15.385409 6.547113-7.621585 2.77009-15.33015 5.329379-23.098068 7.65433-4.924149 1.473561-9.990538 2.537799-15.050788 3.458775-5.453199 0.991584-10.997472 1.334391-16.542768 1.025353-2.329045-0.128937-4.63967-0.606821-7.110955-0.946558-0.669242 3.288906-1.366114 6.483668-1.964748 9.695826-0.985444 5.275143-1.979074 10.55131-2.833535 15.847943-0.656963 4.074805-1.100054 8.185426-1.644453 12.277628-0.518816 3.885494-1.074472 7.762801-1.556449 11.653411-0.283456 2.290159-0.524956 4.590552-0.661056 6.891967-0.361227 6.05081-0.812505 12.101619-0.939395 18.157545-0.228197 10.92584-0.318248 21.856797-0.315178 32.785707 0.001023 4.530177 0.38067 9.061376 0.606821 13.5936 0.198521 4.000104 0.390903 8.001231 0.644683 11.998265 0.281409 4.461615 0.596588 8.919137 0.959861 13.373589 0.243547 2.969635 0.593518 5.930059 0.903579 8.982582l-47.729048 0c0-2.074242-0.080841-4.148483 0.021489-6.215562 0.11154-2.198062 0.468674-4.381797 0.592494-6.579859 0.172939-3.113921 0.264013-6.230911 0.330528-9.347902 0.130983-6.091742 0.248663-12.183484 0.320295-18.277272 0.127913-10.874675 0.201591-21.750373 0.333598-32.627095 0.056282-4.604878 0.127913-9.211802 0.332575-13.812587 0.231267-5.205559 0.499373-10.41521 0.971118-15.603373 0.485047-5.313006 1.171686-10.611685 1.88186-15.900132 0.89744-6.67605 1.76725-13.362332 2.911306-19.995403 1.183965-6.874571 2.685155-13.691837 4.037966-20.537755 0.222057-1.12052 0.390903-2.25025 0.562818-3.245927-3.645017 0.277316-7.366781 0.641613-11.097756 0.828878-6.827499 0.341784-13.455453-0.895393-20.015869-2.671852-8.91095-2.415003-17.449417-5.822612-25.403576-10.438747-7.024997-4.076852-13.809517-8.596795-20.48045-13.238512-3.730974-2.595105-7.046486-5.798053-10.489912-8.795317-2.543939-2.217505-5.129834-4.41352-7.450692-6.853082-3.551896-3.736091-7.021927-7.568373-10.283204-11.55722-2.667759-3.26537-5.191232-6.694469-7.391341-10.287297-2.459005-4.016477-3.959172-8.482185-4.611018-13.181207-0.268106-1.918699-0.624217-3.851725-0.60989-5.776563 0.047072-5.595438 1.198292-10.987239 3.409656-16.140609 2.837628-6.616698 7.008624-12.342096 11.885701-17.576307 5.275143-5.66093 11.904121-8.853645 19.340487-10.683317 6.136767-1.511423 12.373819-1.555425 18.559705-1.169639 9.600659 0.600681 18.86772 2.968611 27.481911 7.320733 6.904247 3.487428 13.304004 7.829316 19.432585 12.565177 6.574742 5.081739 12.666484 10.703783 18.293645 16.792455 3.76679 4.072759 7.176446 8.480138 10.683317 12.787234 5.161556 6.340405 9.370415 13.305027 13.155624 20.50194 1.879813-2.671852 3.669576-5.360078 5.606695-7.933693 3.563152-4.736884 7.599072-9.063423 12.196787-12.799514 4.500501-3.657296 9.029654-7.316639 13.81668-10.57587 6.17156-4.202719 12.849656-7.525394 19.751856-10.426467 6.325056-2.659573 12.824073-4.63353 19.547195-5.879917 2.156106-0.401136 4.364401-0.589424 6.557346-0.723477 3.058662-0.188288 6.127558-0.36532 9.187243-0.314155 9.745968 0.161682 18.847254 2.653433 27.324322 7.55814 4.399193 2.544963 8.503675 5.414313 11.910261 9.185196 4.89038 5.415336 8.490372 11.524474 10.602476 18.60473C605.477998 429.78451 605.958952 435.394275 605.564979 441.062368z" fill="#ecf0f1"></path></g></g></svg>