<?xml version="1.0" standalone="no"?><!DOCTYPE svg PUBLIC "-//W3C//DTD SVG 1.1//EN" "http://www.w3.org/Graphics/SVG/1.1/DTD/svg11.dtd"><svg width="200" height="200" viewBox="0 0 200 200" version="1.1" xmlns="http://www.w3.org/2000/svg" xmlns:xlink="http://www.w3.org/1999/xlink"><defs><style type="text/css"><![CDATA[
@font-face { font-family: ifont; src: url(http://at.alicdn.com/t/font_1442373896_4754455.eot?#iefix) format(embedded-opentype), url(http://at.alicdn.com/t/font_1442373896_4754455.woff) format(woff), url(http://at.alicdn.com/t/font_1442373896_4754455.ttf) format(truetype), url(http://at.alicdn.com/t/font_1442373896_4754455.svg#ifont) format(svg); }

]]></style></defs><g class="transform-group"><g transform="scale(0.1953125, 0.1953125)"><path d="M512.128425 894.572232c211.386408 0 382.76359-171.802878 382.76359-383.743918S733.750965 128.561028 519.602653 128.561028c-214.147288 0-390.239865 170.3242-390.239865 382.266263S300.737924 894.572232 512.128425 894.572232zM180.288644 510.799662c0-183.719278 153.646356-330.549392 339.278193-330.549392 185.631838 0 324.326667 146.830113 324.326667 330.549392 0 183.719278-148.555407 332.667635-331.801918 332.667635C328.843028 843.467297 180.288644 694.51894 180.288644 510.799662zM597.274664 295.9115M723.200678 460.479603 563.898509 458.143395 509.187443 308.503283 457.733561 459.282335 297.643446 485.36334 426.030511 560.610114 382.334313 713.822588 512.596076 622.083188 644.794957 710.968587 597.803713 558.743604Z" fill="#eb4f38"></path></g></g></svg>